<svg width="48" height="27" viewBox="0 0 48 27" fill="none" xmlns="http://www.w3.org/2000/svg">
<path d="M0.5 26.3906V24.8101H10.4127V26.3906H0.5Z" fill="white"/>
<path d="M10.4126 26.3906V24.8101H47.4997V26.3906H10.4126Z" fill="white"/>
<path d="M47.4999 21.1791H43.4836V3.02405C43.4836 2.04154 43.099 1.52893 42.3727 1.52893C41.7745 1.52893 41.2191 1.82795 40.6209 2.46872C40.8345 2.98133 40.9627 3.57938 40.9627 4.34829V20.4956H41.9454V21.1791H37.9718V3.02405C37.9718 2.04154 37.5873 1.52893 36.8182 1.52893C36.3055 1.52893 35.8355 1.74252 35.4082 2.21241V20.4956H36.3909V21.1791H31.3918V20.4956H32.3746V1.65708H31.3918V0.93088H35.4082V1.48621C35.9636 1.01632 36.7327 0.76001 37.6727 0.76001C38.9118 0.76001 39.8091 1.14447 40.3645 1.91339C41.1336 1.14447 42.0736 0.76001 43.2272 0.76001C45.449 0.76001 46.5172 1.9561 46.5172 4.34829V20.4956H47.4999V21.1791Z" fill="white"/>
<path d="M19.7275 17.4199C19.7275 18.5306 19.343 19.4703 18.6166 20.2393C17.8048 21.0082 16.7794 21.3926 15.5403 21.3926C14.3012 21.3926 13.2757 21.0082 12.4639 20.2393C11.6521 19.4703 11.2676 18.5306 11.2676 17.4199V15.0277H14.3012V19.1286C14.3012 20.1538 14.7285 20.6664 15.5403 20.6664C16.3094 20.6664 16.7366 20.1538 16.7366 19.1286V16.1384C16.7366 14.8996 16.3948 13.9171 15.6685 13.2336L12.4639 10.0297C11.6521 9.26083 11.2676 8.10745 11.2676 6.56961V4.73275C11.2676 3.62209 11.6521 2.6823 12.4212 1.91339C13.1903 1.14447 14.173 0.76001 15.4548 0.76001C16.6939 0.76001 17.7194 1.14447 18.4884 1.91339C19.2575 2.6823 19.6421 3.62209 19.6421 4.73275V7.12494H16.6085V3.02405C16.6085 1.99882 16.2239 1.48621 15.4121 1.48621C14.643 1.48621 14.2585 1.99882 14.2585 3.02405V5.71526C14.2585 6.95407 14.6003 7.93658 15.2839 8.62006L18.4884 11.7812C19.3003 12.5928 19.6848 13.7462 19.6848 15.2413V17.4199H19.7275Z" fill="white"/>
<path d="M30.8357 21.1791H26.8194V20.6237C26.2639 21.1363 25.5376 21.3499 24.6403 21.3499C22.504 21.3499 21.3931 20.1538 21.3931 17.7616V13.319C21.3931 10.7987 22.8885 9.55985 25.8794 9.55985H26.8194V3.02405C26.8194 1.99882 26.4349 1.48621 25.6658 1.48621C24.9394 1.48621 24.5549 1.99882 24.5549 3.02405V7.12494H21.5212V4.73275C21.5212 3.53666 21.9058 2.55415 22.6321 1.82795C23.4012 1.10175 24.384 0.76001 25.6658 0.76001C26.9476 0.76001 27.973 1.10175 28.6994 1.82795C29.4257 2.55415 29.8103 3.49394 29.8103 4.73275V20.4956H30.8357V21.1791ZM26.8194 19.9402V10.2433H25.9221C24.9394 10.2433 24.4267 10.7559 24.4267 11.7812V19.1286C24.4267 20.1111 24.7685 20.6237 25.4521 20.6237C25.9221 20.581 26.3494 20.3674 26.8194 19.9402Z" fill="white"/>
<path d="M3.53362 17.5908V3.02405C3.53362 1.99882 4.00362 1.48621 4.90088 1.48621C5.79815 1.48621 6.26815 1.99882 6.26815 3.02405V14.3442C7.4645 13.1481 8.57541 12.5501 9.30176 12.2511V4.73275C9.30176 3.62209 8.87449 2.6823 8.06268 1.91339C7.20814 1.14447 6.18269 0.76001 4.90088 0.76001C3.61907 0.76001 2.59362 1.14447 1.73908 1.91339C0.92727 2.6823 0.5 3.62209 0.5 4.73275V17.4199C0.5 18.1461 0.670908 18.7869 1.01272 19.3849C1.18363 19.2995 1.39727 19.214 1.6109 19.0859C2.12363 18.7869 2.80726 18.317 3.53362 17.5908Z" fill="white"/>
<path d="M8.83196 13.3191C8.14832 13.7035 7.20833 14.3443 6.26834 15.4977V19.1287C6.26834 19.4277 6.22561 19.684 6.14015 19.8976C5.96925 20.4102 5.54198 20.6665 4.90107 20.6665C4.81562 20.6665 4.77289 20.6665 4.68743 20.6665C3.91835 20.5811 3.53381 20.0684 3.53381 19.1287V18.9578V18.7015C2.76472 19.3422 2.08109 19.7694 1.52563 20.0257C1.61109 20.1112 1.69654 20.1966 1.782 20.282C2.25199 20.7092 2.76472 21.0082 3.3629 21.1791C3.40562 21.3073 3.40562 21.4781 3.3629 21.649C3.23472 21.9907 3.06381 22.3325 2.85017 22.6315C2.59381 22.9732 2.4229 23.2723 2.4229 23.6567C2.4229 24.5111 3.14926 25.2373 4.0038 25.2373C4.85834 25.2373 5.5847 24.5111 5.5847 23.6567C5.5847 23.2723 5.41379 22.9305 5.15743 22.6315C4.90107 22.2898 4.68744 21.8626 4.60198 21.4781V21.4354C4.73016 21.4354 4.85834 21.4354 4.98652 21.4354C6.26834 21.4354 7.29378 21.051 8.14832 20.282C8.96014 19.5131 9.38741 18.5733 9.38741 17.4627V13.1055C9.17377 13.1482 9.00287 13.2336 8.83196 13.3191Z" fill="white"/>
</svg>
