<svg width="120" height="70" viewBox="0 0 120 70" fill="none" xmlns="http://www.w3.org/2000/svg">
<path d="M13 60.7812V57.6201H32.8253V60.7812H13Z" fill="#834C33"/>
<path d="M32.8252 60.7812V57.6201H106.999V60.7812H32.8252Z" fill="#834C33"/>
<path d="M107 50.3581H98.9673V14.0481C98.9673 12.0831 98.1982 11.0579 96.7455 11.0579C95.5491 11.0579 94.4382 11.6559 93.2419 12.9374C93.6692 13.9627 93.9255 15.1588 93.9255 16.6966V48.9911H95.891V50.3581H87.9437V14.0481C87.9437 12.0831 87.1746 11.0579 85.6365 11.0579C84.611 11.0579 83.671 11.485 82.8165 12.4248V48.9911H84.7819V50.3581H74.7838V48.9911H76.7493V11.3142H74.7838V9.86176H82.8165V10.9724C83.9274 10.0326 85.4656 9.52002 87.3456 9.52002C89.8237 9.52002 91.6183 10.2889 92.7292 11.8268C94.2673 10.2889 96.1473 9.52002 98.4546 9.52002C102.898 9.52002 105.035 11.9122 105.035 16.6966V48.9911H107V50.3581Z" fill="#1A5D54"/>
<path d="M51.4552 42.8398C51.4552 45.0611 50.6861 46.9407 49.2334 48.4785C47.6097 50.0164 45.5588 50.7853 43.0807 50.7853C40.6025 50.7853 38.5516 50.0164 36.928 48.4785C35.3044 46.9407 34.5353 45.0611 34.5353 42.8398V38.0554H40.6025V46.2572C40.6025 48.3077 41.4571 49.3329 43.0807 49.3329C44.6189 49.3329 45.4734 48.3077 45.4734 46.2572V40.2767C45.4734 37.7991 44.7898 35.8341 43.337 34.4671L36.928 28.0595C35.3044 26.5217 34.5353 24.2149 34.5353 21.1392V17.4655C34.5353 15.2442 35.3044 13.3646 36.8425 11.8268C38.3807 10.2889 40.3462 9.52002 42.9098 9.52002C45.3879 9.52002 47.4388 10.2889 48.977 11.8268C50.5152 13.3646 51.2843 15.2442 51.2843 17.4655V22.2499H45.217V14.0481C45.217 11.9976 44.4479 10.9724 42.8243 10.9724C41.2861 10.9724 40.5171 11.9976 40.5171 14.0481V19.4305C40.5171 21.9081 41.2007 23.8732 42.568 25.2401L48.977 31.5623C50.6006 33.1856 51.3697 35.4924 51.3697 38.4826V42.8398H51.4552Z" fill="#1A5D54"/>
<path d="M73.6716 50.3581H65.6389V49.2474C64.528 50.2727 63.0753 50.6998 61.2808 50.6998C57.0081 50.6998 54.7863 48.3077 54.7863 43.5233V34.638C54.7863 29.5973 57.7771 27.1197 63.7589 27.1197H65.6389V14.0481C65.6389 11.9976 64.8698 10.9724 63.3317 10.9724C61.8789 10.9724 61.1099 11.9976 61.1099 14.0481V22.2499H55.0426V17.4655C55.0426 15.0733 55.8117 13.1083 57.2644 11.6559C58.8026 10.2035 60.768 9.52002 63.3317 9.52002C65.8953 9.52002 67.9462 10.2035 69.3989 11.6559C70.8516 13.1083 71.6207 14.9879 71.6207 17.4655V48.9911H73.6716V50.3581ZM65.6389 47.8805V28.4867H63.8444C61.8789 28.4867 60.8535 29.5119 60.8535 31.5623V46.2572C60.8535 48.2222 61.5371 49.2474 62.9044 49.2474C63.8444 49.162 64.6989 48.7348 65.6389 47.8805Z" fill="#1A5D54"/>
<path d="M19.0672 43.1815V14.0481C19.0672 11.9976 20.0072 10.9724 21.8018 10.9724C23.5963 10.9724 24.5363 11.9976 24.5363 14.0481V36.6884C26.929 34.2963 29.1508 33.1002 30.6035 32.5021V17.4655C30.6035 15.2442 29.749 13.3646 28.1254 11.8268C26.4163 10.2889 24.3654 9.52002 21.8018 9.52002C19.2381 9.52002 17.1872 10.2889 15.4782 11.8268C13.8545 13.3646 13 15.2442 13 17.4655V42.8398C13 44.2922 13.3418 45.5737 14.0254 46.7698C14.3673 46.5989 14.7945 46.4281 15.2218 46.1718C16.2473 45.5737 17.6145 44.6339 19.0672 43.1815Z" fill="#1A5D54"/>
<path d="M29.6639 34.6381C28.2966 35.407 26.4167 36.6886 24.5367 38.9953V46.2573C24.5367 46.8554 24.4512 47.368 24.2803 47.7952C23.9385 48.8204 23.084 49.333 21.8021 49.333C21.6312 49.333 21.5458 49.333 21.3749 49.333C19.8367 49.1621 19.0676 48.1369 19.0676 46.2573V45.9156V45.403C17.5294 46.6845 16.1622 47.5388 15.0513 48.0515C15.2222 48.2223 15.3931 48.3932 15.564 48.5641C16.504 49.4184 17.5294 50.0165 18.7258 50.3582C18.8112 50.6145 18.8112 50.9563 18.7258 51.298C18.4694 51.9815 18.1276 52.665 17.7003 53.263C17.1876 53.9465 16.8458 54.5445 16.8458 55.3135C16.8458 57.0222 18.2985 58.4746 20.0076 58.4746C21.7167 58.4746 23.1694 57.0222 23.1694 55.3135C23.1694 54.5445 22.8276 53.8611 22.3149 53.263C21.8021 52.5795 21.3749 51.7252 21.204 50.9563V50.8708C21.4603 50.8708 21.7167 50.8708 21.973 50.8708C24.5367 50.8708 26.5876 50.1019 28.2966 48.5641C29.9203 47.0262 30.7748 45.1467 30.7748 42.9253V34.2109C30.3475 34.2964 30.0057 34.4672 29.6639 34.6381Z" fill="#834C33"/>
</svg>
