<svg xmlns="http://www.w3.org/2000/svg" viewBox="0 0 38.7 51.6"><defs><style>.cls-1{fill-rule:evenodd;}</style></defs><g id="레이어_2" data-name="레이어 2"><g id="레이어_1-2" data-name="레이어 1"><path class="cls-1" d="M36.55,33.6c0-1.53-.33-4.13-2.56-4.26a2.14,2.14,0,0,1-2-1.94,10.07,10.07,0,0,0-1-3.75H7.75a10.06,10.06,0,0,0-1,3.75,2.15,2.15,0,0,1-2,1.94c-2.23.13-2.56,2.73-2.56,4.26,0,.68.72,3.47,2.86,4.22a2.16,2.16,0,0,1,1.31,1.3c2.08,5.79,7.8,10.33,13,10.33,5.49,0,11.17-5.37,13-10.39a2.15,2.15,0,0,1,1.37-1.31C36.06,37,36.55,34.14,36.55,33.6ZM8.6,18.06V21.5h6.45V18.28a1.08,1.08,0,1,1,2.15,0V21.5h4.3V18.28a1.08,1.08,0,1,1,2.15,0V21.5H30.1V18c.52-.13,6.45-.94,6.45-6.6,0-4.28-3.77-7.69-8.33-7.69a11,11,0,0,0-4.17.92c-2.45-2.42-3.51-2.44-4.7-2.44s-2.23,0-4.7,2.44a11,11,0,0,0-4.17-.92c-4.56,0-8.33,3.41-8.33,7.69C2.15,16.64,7.87,17.84,8.6,18.06ZM38.7,33.6c0,1.44-1,5.18-4.3,6.21-2.2,5.92-8.6,11.79-15,11.79S6.54,46.1,4.3,39.85C1,38.7,0,34.9,0,33.6c0-3.24,1.3-6.21,4.58-6.4a11.34,11.34,0,0,1,1.87-5.44v-2.1A9,9,0,0,1,0,11.36C0,5.93,4.7,1.52,10.48,1.52a11.08,11.08,0,0,1,3.62.6,7.56,7.56,0,0,1,10.5,0,11.08,11.08,0,0,1,3.62-.6C34,1.52,38.7,5.93,38.7,11.36a8.87,8.87,0,0,1-6.45,8.3v2.1a11.38,11.38,0,0,1,1.87,5.44C37.4,27.39,38.7,30.34,38.7,33.6ZM19.35,37.23c-4.08-2.77-2.9,4-8.6,1.22.86,3.82,6,4.47,8.6,2.17,2.57,2.3,7.74,1.65,8.6-2.17C22.26,41.22,23.44,34.46,19.35,37.23ZM25.8,28a2.36,2.36,0,0,0-2.15,2.52A2.36,2.36,0,0,0,25.8,33,2.36,2.36,0,0,0,28,30.47,2.36,2.36,0,0,0,25.8,28ZM15.05,30.47A2.36,2.36,0,0,1,12.9,33a2.36,2.36,0,0,1-2.15-2.53A2.36,2.36,0,0,1,12.9,28,2.36,2.36,0,0,1,15.05,30.47Z"/></g></g></svg>