<svg xmlns="http://www.w3.org/2000/svg" viewBox="0 0 51.6 51.6"><defs><style>.cls-1{fill-rule:evenodd;}</style></defs><g id="레이어_2" data-name="레이어 2"><g id="레이어_1-2" data-name="레이어 1"><path class="cls-1" d="M29,43a4.3,4.3,0,1,1-4.3,4.3A4.31,4.31,0,0,1,29,43ZM6.45,51.6c-1.29,0-5.23-3.77-5.91-9.25A11.11,11.11,0,0,1,10,29.73,14.43,14.43,0,0,1,23.86,19.47c1.63-4.26,7.33-9.69,14.71-6.85a14.3,14.3,0,0,1,8,8,1.07,1.07,0,0,1-2,.74,12.11,12.11,0,0,0-6.72-6.77c-5.55-2.13-10.1,1.57-11.66,4.94a13.91,13.91,0,0,1,5.92,1.91A7,7,0,0,1,35.3,27a5.45,5.45,0,0,1-7.07,5.57,7.23,7.23,0,0,1-4.61-4.66,12.32,12.32,0,0,1-.38-6.28,12.14,12.14,0,0,0-10.91,8,13,13,0,0,1,6.09,2.18,7,7,0,0,1,3.25,5.59,5.69,5.69,0,0,1-2.17,4.63,5.85,5.85,0,0,1-5.08.75A6.89,6.89,0,0,1,10,38.28,13.48,13.48,0,0,1,9.51,32,9,9,0,0,0,2.67,42.08c.39,3.11,2.17,6.21,4.34,7.53A1.08,1.08,0,0,1,6.45,51.6ZM43.66,30l2.59,4.79,5.35,1-3.75,3.95.72,5.39L43.66,42.8l-4.91,2.35.72-5.39-3.75-3.95,5.35-1ZM11.73,31.81A11.52,11.52,0,0,0,12,37.57,4.73,4.73,0,0,0,15,40.78a3.74,3.74,0,0,0,3.16-.4,3.6,3.6,0,0,0,1.32-2.89,5,5,0,0,0-2.34-3.87A10.6,10.6,0,0,0,11.73,31.81Zm13.7-10.14a10.59,10.59,0,0,0,.22,5.53,5.13,5.13,0,0,0,3.19,3.33,3.35,3.35,0,0,0,3-.52,3.43,3.43,0,0,0,1.29-2.92,4.78,4.78,0,0,0-2.28-3.81A12.55,12.55,0,0,0,25.43,21.67ZM9.68,0l3.15,5.83L19.35,7l-4.57,4.8.87,6.57-6-2.86-6,2.86.87-6.57L0,7l6.52-1.2ZM46.23,0a5.38,5.38,0,1,1-5.38,5.38A5.38,5.38,0,0,1,46.23,0Z"/></g></g></svg>