<svg xmlns="http://www.w3.org/2000/svg" viewBox="0 0 43 51.6"><defs><style>.cls-1{fill-rule:evenodd;}</style></defs><g id="레이어_2" data-name="레이어 2"><g id="레이어_1-2" data-name="레이어 1"><path class="cls-1" d="M22.85,46,35.68,33.2l3.14,8L12.29,51.6,2,25.29ZM20.11,0H0V20.32L22.84,43,43,22.84Zm8.65,20.37a4.06,4.06,0,0,0-3-1.32c-1.24,0-2.64.52-4.67,1.73A6.73,6.73,0,0,1,18,22a2.28,2.28,0,0,1-2.07-2.62,4.11,4.11,0,0,1,1.23-2.19c1.41-1.4,3.32-1.82,4.9-.23l1.6-1.6a5.46,5.46,0,0,0-3.79-1.7,5.6,5.6,0,0,0-3.58,1.45L15,13.8l-1.5,1.5,1.4,1.4C13.63,18.48,13,21.05,15,23c2.17,2.17,4.7,1.16,7.33-.5a6.3,6.3,0,0,1,3.17-1.21A2.33,2.33,0,0,1,27.84,24a4.31,4.31,0,0,1-1.33,2.42,4.22,4.22,0,0,1-2.9,1.46,3.32,3.32,0,0,1-2.25-1l-1.59,1.59A5.33,5.33,0,0,0,23.5,30.1,5.73,5.73,0,0,0,27,28.82L28.12,30l1.5-1.5L28.5,27.35C30.1,25.43,31,22.61,28.76,20.37ZM8,4.3A3.66,3.66,0,1,1,4.3,8,3.66,3.66,0,0,1,8,4.3Z"/></g></g></svg>