<svg width="45" height="45" viewBox="0 0 45 45" fill="none" xmlns="http://www.w3.org/2000/svg">
    <path d="M7.5 33.75h30a1.88 1.88 0 0 0 1.875-1.875A1.88 1.88 0 0 0 37.5 30h-30a1.88 1.88 0 0 0-1.875 1.875A1.88 1.88 0 0 0 7.5 33.75zm0-9.375h30a1.88 1.88 0 0 0 1.875-1.875 1.88 1.88 0 0 0-1.875-1.875h-30A1.88 1.88 0 0 0 5.625 22.5 1.88 1.88 0 0 0 7.5 24.375zm-1.875-11.25A1.88 1.88 0 0 0 7.5 15h30a1.88 1.88 0 0 0 1.875-1.875A1.88 1.88 0 0 0 37.5 11.25h-30a1.88 1.88 0 0 0-1.875 1.875z" fill="#141414"/>
</svg>
